<svg xmlns="http://www.w3.org/2000/svg" viewBox="0 0 720 360" role="img" aria-labelledby="title desc">
  <title id="title">小明书院地图</title>
  <desc id="desc">一组书院建筑、道路和知识树组成的游戏地图插画。</desc>
  <rect width="720" height="360" fill="#eaf4ff"/>
  <path d="M0 272 C105 244 176 276 265 250 C365 220 445 244 534 218 C610 196 660 210 720 184 L720 360 L0 360 Z" fill="#c9f2d5"/>
  <path d="M0 306 C114 286 185 314 270 292 C379 263 460 284 552 255 C623 233 673 244 720 229 L720 360 L0 360 Z" fill="#93d7ad"/>
  <path d="M176 304 C236 270 288 252 354 250 C426 248 487 273 560 322" fill="none" stroke="#f5c66b" stroke-width="22" stroke-linecap="round"/>
  <path d="M176 304 C236 270 288 252 354 250 C426 248 487 273 560 322" fill="none" stroke="#fff4c7" stroke-width="10" stroke-linecap="round"/>
  <g transform="translate(96 104)">
    <rect x="22" y="74" width="128" height="86" rx="8" fill="#ffffff" stroke="#164e63" stroke-width="6"/>
    <path d="M8 78 L86 22 L164 78 Z" fill="#2563eb" stroke="#164e63" stroke-width="6" stroke-linejoin="round"/>
    <rect x="70" y="112" width="34" height="48" rx="4" fill="#f59e0b"/>
    <rect x="38" y="96" width="24" height="24" rx="3" fill="#bae6fd"/>
    <rect x="112" y="96" width="24" height="24" rx="3" fill="#bae6fd"/>
  </g>
  <g transform="translate(288 62)">
    <rect x="34" y="92" width="150" height="92" rx="8" fill="#ffffff" stroke="#14532d" stroke-width="6"/>
    <path d="M14 96 L109 26 L204 96 Z" fill="#0f766e" stroke="#14532d" stroke-width="6" stroke-linejoin="round"/>
    <rect x="92" y="126" width="38" height="58" rx="4" fill="#d97706"/>
    <rect x="52" y="114" width="26" height="26" rx="3" fill="#bbf7d0"/>
    <rect x="142" y="114" width="26" height="26" rx="3" fill="#bbf7d0"/>
  </g>
  <g transform="translate(514 100)">
    <rect x="14" y="66" width="112" height="84" rx="8" fill="#ffffff" stroke="#7f1d1d" stroke-width="6"/>
    <path d="M0 70 L70 20 L140 70 Z" fill="#dc2626" stroke="#7f1d1d" stroke-width="6" stroke-linejoin="round"/>
    <rect x="54" y="104" width="32" height="46" rx="4" fill="#f59e0b"/>
    <circle cx="70" cy="48" r="10" fill="#fff7ed"/>
  </g>
  <g transform="translate(420 40)">
    <path d="M48 130 L48 58" stroke="#14532d" stroke-width="10" stroke-linecap="round"/>
    <circle cx="48" cy="48" r="28" fill="#22c55e" stroke="#14532d" stroke-width="6"/>
    <circle cx="20" cy="78" r="22" fill="#16a34a" stroke="#14532d" stroke-width="5"/>
    <circle cx="78" cy="80" r="24" fill="#4ade80" stroke="#14532d" stroke-width="5"/>
  </g>
  <circle cx="62" cy="70" r="24" fill="#fef3c7" stroke="#f59e0b" stroke-width="6"/>
  <path d="M628 58 L646 76 L676 38" fill="none" stroke="#2563eb" stroke-width="10" stroke-linecap="round" stroke-linejoin="round"/>
</svg>
