<svg xmlns="http://www.w3.org/2000/svg" style="display: none">
  <symbol id="icon-scholar" viewBox="0 0 64 64">
    <path d="M16 54c2-11 9-17 16-17s14 6 16 17" fill="#2563eb"/>
    <path d="M21 25c0-7 5-13 11-13s11 6 11 13-5 13-11 13-11-6-11-13Z" fill="#f7c98b"/>
    <path d="M15 22c8-11 23-14 34-2-9-2-19-2-34 2Z" fill="#0f172a"/>
    <path d="M20 12h24l-12-6-12 6Z" fill="#14b8a6"/>
    <path d="M12 56h40" stroke="#0f172a" stroke-width="4" stroke-linecap="round"/>
  </symbol>
  <symbol id="icon-demon" viewBox="0 0 64 64">
    <path d="M14 34c0-13 8-23 18-23s18 10 18 23c0 12-8 20-18 20s-18-8-18-20Z" fill="#7c3aed"/>
    <path d="M15 18 7 8l3 17M49 18l8-10-3 17" fill="none" stroke="#f59e0b" stroke-width="5" stroke-linecap="round" stroke-linejoin="round"/>
    <path d="M24 33h.5M40 33h.5" stroke="#fff" stroke-width="6" stroke-linecap="round"/>
    <path d="M25 44c4 3 10 3 14 0" stroke="#fff" stroke-width="4" stroke-linecap="round"/>
  </symbol>
  <symbol id="icon-scroll" viewBox="0 0 64 64">
    <path d="M18 10h30v38H18z" fill="#fff7d6"/>
    <path d="M18 10c-6 0-8 5-5 9h5V10ZM48 48c6 0 8 5 5 9H18c-6 0-8-5-5-9h35Z" fill="#f59e0b"/>
    <path d="M24 22h18M24 31h16M24 40h12" stroke="#0f172a" stroke-width="4" stroke-linecap="round"/>
  </symbol>
  <symbol id="icon-jade" viewBox="0 0 64 64">
    <path d="M32 7 54 24 45 55H19L10 24 32 7Z" fill="#14b8a6"/>
    <path d="M32 7v48M10 24h44M19 55l13-31 13 31" fill="none" stroke="#dffcf4" stroke-width="4" stroke-linejoin="round"/>
  </symbol>
  <symbol id="icon-star-sand" viewBox="0 0 64 64">
    <path d="m32 6 7 18 19 1-15 12 5 19-16-11-16 11 5-19L6 25l19-1 7-18Z" fill="#f59e0b"/>
    <path d="M32 18v16M24 30h16" stroke="#fff7d6" stroke-width="4" stroke-linecap="round"/>
  </symbol>
  <symbol id="icon-token" viewBox="0 0 64 64">
    <circle cx="32" cy="32" r="23" fill="#ef4444"/>
    <circle cx="32" cy="32" r="14" fill="#fff7d6"/>
    <path d="M32 17v30M17 32h30" stroke="#ef4444" stroke-width="5" stroke-linecap="round"/>
  </symbol>
</svg>
